<?xml version="1.0" encoding="UTF-8"?>
<svg width="100px" height="100px" viewBox="0 0 100 100" version="1.1" xmlns="http://www.w3.org/2000/svg" xmlns:xlink="http://www.w3.org/1999/xlink">
    <!-- Generator: Sketch 54.1 (76490) - https://sketchapp.com -->
    <title>help</title>
    <desc>Created with Sketch.</desc>
    <g id="Page-1" stroke="none" stroke-width="1" fill="none" fill-rule="evenodd">
        <g id="404" transform="translate(-670.000000, -260.000000)" fill-rule="nonzero">
            <g id="Group-13" transform="translate(455.000000, 230.000000)">
                <g id="Group-11" transform="translate(185.000000, 0.000000)">
                    <g id="help" transform="translate(30.000000, 30.000000)">
                        <path d="M87.3958965,48.5162141 L87.1622947,45.3248618 L89.1860533,43.3011159 C98.1372326,34.3499931 98.1372326,19.7167691 89.1860533,10.8433154 C80.2348741,1.89219266 65.6792274,1.89219266 56.7280481,10.8433154 L54.7042895,12.8670613 C53.6924102,12.7113277 52.6026636,12.633461 51.512917,12.633461 L55.015561,9.13083909 C64.9007522,-0.754289837 81.0131516,-0.832156621 90.8983428,9.13083909 C100.783534,19.015968 100.783534,35.1282657 90.8983428,45.0133947 C90.8985405,45.0135923 87.3958965,48.5162141 87.3958965,48.5162141 Z M45.4418388,12.9451257 L43.4180802,10.9213799 C34.4669009,1.97025707 19.8335846,1.97025707 10.960075,10.9213799 C1.93102848,19.7946359 1.93102848,34.4280576 10.960075,43.3791803 L12.9838336,45.4029262 C12.8280991,46.4147991 12.7502318,47.5045388 12.7502318,48.5942786 L9.24758784,45.0916567 C-0.637603432,35.2065278 -0.715470707,19.0942301 9.24758784,9.20910114 C19.1327791,-0.67602779 35.2451784,-0.67602779 45.1303697,9.20910114 L48.6330136,12.711723 C47.5432671,12.7115254 46.4537181,12.7893921 45.4418388,12.9451257 Z M12.6723645,51.4741638 L12.9059663,54.6655161 L10.8822077,56.689262 C1.93102848,65.6403848 1.93102848,80.2736088 10.8043404,89.1468648 C19.7555197,98.0979876 34.3111664,98.0979876 43.2623456,89.1468648 L45.2861043,87.123119 C46.2979836,87.2788526 47.3877301,87.3567193 48.4774767,87.3567193 L44.9748328,90.8593412 C35.0896415,100.74447 18.9772422,100.822337 9.09205092,90.937208 C-0.793140349,81.052079 -0.793337982,64.9397813 9.16972057,55.0544548 L12.6723645,51.4741638 Z M54.6264222,87.0452522 L56.6501809,89.0689981 C65.6013601,98.0201208 80.2346764,98.0201208 89.108186,89.0689981 C98.0593653,80.1178753 98.0593653,65.5623204 89.0303188,56.6111976 L87.0065601,54.5874517 C87.1622947,53.5755788 87.240162,52.4858391 87.240162,51.3960994 L90.7428059,54.8987212 C100.627997,64.7838501 100.705864,80.8961478 90.8206732,90.7812768 C80.9354819,100.666406 64.8230826,100.666406 54.9378913,90.70341 L51.4352474,87.2007881 C52.524994,87.2788526 53.6145429,87.2009858 54.6264222,87.0452522 Z" id="Shape" fill="#E4E7E7"></path>
                        <path d="M50,0 C22.4218645,0 0,22.4218645 0,50 C0,77.5781355 22.3437091,100 50,100 C77.5781355,100 100,77.5781355 100,50 C100,22.4218645 77.5779372,0 50,0 Z M50,74.9998016 C36.1718545,74.9998016 25,63.8279471 25,49.9998016 C25,36.1716562 36.1718545,24.9998016 50,24.9998016 C63.8281455,24.9998016 75,36.1716562 75,49.9998016 C75,63.8279471 63.8279471,74.9998016 50,74.9998016 Z" id="Shape" fill="#E2574C"></path>
                        <path d="M50,18.9873418 C32.892331,18.9873418 18.9873418,32.892331 18.9873418,50 C18.9873418,67.107669 32.892331,81.0126582 50,81.0126582 C67.107669,81.0126582 81.0126582,67.107669 81.0126582,50 C81.0126582,32.892331 67.107669,18.9873418 50,18.9873418 Z M50,74.9974438 C36.1731587,74.9974438 25.0023579,63.8266429 25.0023579,49.9998017 C25.0023579,36.1729604 36.1731587,25.0021595 50,25.0021595 C63.8268413,25.0021595 74.9976421,36.1729604 74.9976421,49.9998017 C74.9976421,63.8266429 63.8266429,74.9974438 50,74.9974438 Z" id="Shape" fill="#D95449"></path>
                        <path d="M50,7.17299578 C26.3283504,7.17299578 7.17299578,26.3283504 7.17299578,50 C7.17299578,73.6716496 26.3283504,92.8270042 50,92.8270042 C73.6716496,92.8270042 92.8270042,73.6716496 92.8270042,50 C92.8270042,26.3283504 73.6716496,7.17299578 50,7.17299578 Z M50,89.7124748 C28.0413119,89.7124748 10.2875252,71.9586881 10.2875252,50 C10.2875252,28.0413119 28.0413119,10.2877229 50,10.2877229 C71.9586881,10.2877229 89.7124748,28.0415096 89.7124748,50.0001977 C89.7124748,71.9588858 71.9584904,89.7124748 50,89.7124748 Z" id="Shape" fill="#E5685E"></path>
                        <path d="M38.1916998,71.8160214 C33.6773507,69.4810814 30.0191134,65.7449798 27.6841734,61.308495 L9.70464135,79.3658913 C12.6622979,83.3353881 16.1648067,86.9157612 20.2121678,89.8734177 L38.1916998,71.8160214 Z M61.308495,27.6841734 C65.8228441,30.0191134 69.4810814,33.6773507 71.8160214,38.1916998 L89.8734177,20.2121678 C86.9157612,16.242671 83.3353881,12.6622979 79.3658913,9.70464135 L61.308495,27.6841734 Z M9.70464135,20.2121678 L27.6841734,38.1916998 C30.0191134,33.6773507 33.6773507,30.0191134 38.1916998,27.6841734 L20.2121678,9.70464135 C16.242671,12.6622979 12.6622979,16.242671 9.70464135,20.2121678 Z M89.8734177,79.3658913 L71.8938857,61.3863593 C69.5589457,65.9007084 65.9007084,69.5589457 61.3863593,71.8938857 L79.3658913,89.8734177 C83.3353881,86.9157612 86.9157612,83.3353881 89.8734177,79.3658913 Z" id="Shape" fill="#EFEFEF"></path>
                        <path d="M65.8166104,23.2067511 L61.4384229,27.5849386 C65.9730381,29.9303608 69.6476983,33.605021 71.9931204,38.1396362 L76.371308,33.7614486 C73.7130305,29.4614749 70.1167827,25.7868147 65.8166104,23.2067511 Z M27.5849386,61.3602091 L23.2067511,65.8166104 C25.7868147,70.1167827 29.4614749,73.7130305 33.7614486,76.371308 L38.1396362,71.9931204 C33.6832348,69.5694844 30.0085746,65.8948243 27.5849386,61.3602091 Z M61.4384229,71.9931204 L65.8166104,76.371308 C70.1167827,73.7912444 73.7130305,70.1165842 76.371308,65.8166104 L71.9931204,61.4384229 C69.5694844,65.8948243 65.8948243,69.5694844 61.4384229,71.9931204 Z M38.21785,27.6631524 L33.7614486,23.2067511 C29.4612764,25.8650285 25.8650285,29.4614749 23.2067511,33.7614486 L27.5849386,38.1396362 C30.0085746,33.6832348 33.6832348,30.0085746 38.21785,27.6631524 Z" id="Shape" fill="#E6E6E6"></path>
                        <path d="M17.0334894,72.4203525 L14.7679325,74.6859221 C17.6582928,78.7481587 21.1736548,82.341691 25.3140185,85.2320675 L27.5795754,82.9664979 C23.43941,80.0761213 19.845898,76.5607395 17.0334894,72.4203525 Z M82.9665106,72.4203525 C80.1543004,76.5607395 76.5607884,80.1542718 72.4204246,82.9664979 L74.6859815,85.2320675 C78.7481952,82.341691 82.3417072,78.7481587 85.2320675,74.6859221 L82.9665106,72.4203525 Z M17.0334894,27.5796475 C19.8456996,23.4392605 23.4392116,19.8457282 27.5795754,17.0335021 L25.3923668,14.8460829 C21.3301531,17.7364595 17.7366411,21.3299917 14.8462808,25.3922283 L17.0334894,27.5796475 Z M82.9665106,27.5796475 L85.2320675,25.3140779 C82.3417072,21.2518413 78.7481952,17.658309 74.6859815,14.7679325 L72.4204246,17.0335021 C76.56059,19.8457282 80.075952,23.4392605 82.9665106,27.5796475 Z" id="Shape" fill="#F1F1F1"></path>
                    </g>
                </g>
            </g>
        </g>
    </g>
</svg>