<?xml version="1.0" encoding="UTF-8"?>
<svg width="34px" height="34px" viewBox="0 0 34 34" version="1.1" xmlns="http://www.w3.org/2000/svg" xmlns:xlink="http://www.w3.org/1999/xlink">
    <!-- Generator: Sketch 54.1 (76490) - https://sketchapp.com -->
    <title>Combined Shape</title>
    <desc>Created with Sketch.</desc>
    <g id="Page-1" stroke="none" stroke-width="1" fill="none" fill-rule="evenodd">
        <g id="Главная" transform="translate(-972.000000, -1042.000000)" fill="#34DFBF" fill-rule="nonzero">
            <g id="Group-36" transform="translate(100.000000, 700.000000)">
                <g id="Group-39-Copy" transform="translate(844.000000, 314.000000)">
                    <g id="Group-41-Copy" transform="translate(15.000000, 15.000000)">
                        <path d="M38.3789062,28.3242188 C37.6669767,28.3242188 37.0898438,27.7470858 37.0898438,27.0351562 C37.0898438,26.3232267 37.6669767,25.7460938 38.3789062,25.7460938 C39.0908358,25.7460938 39.6679688,26.3232267 39.6679688,27.0351562 C39.6679688,27.7470858 39.0908358,28.3242188 38.3789062,28.3242188 Z M41.34375,16.078125 C44.1869062,16.078125 46.5,18.3912188 46.5,21.234375 L46.5,28.5820312 C46.5,29.2939805 45.9228867,29.8710938 45.2109375,29.8710938 C44.4989883,29.8710938 43.921875,29.2939805 43.921875,28.5820312 L43.921875,21.234375 C43.921875,19.8127969 42.7653281,18.65625 41.34375,18.65625 L39.6679688,18.65625 L39.6679688,19.9453125 C39.6679688,20.6572617 39.0908555,21.234375 38.3789062,21.234375 C37.666957,21.234375 37.0898438,20.6572617 37.0898438,19.9453125 L37.0898438,18.65625 L31.2246094,18.65625 L31.2246094,19.9453125 C31.2246094,20.6572617 30.6474961,21.234375 29.9355469,21.234375 C29.2235977,21.234375 28.6464844,20.6572617 28.6464844,19.9453125 L28.6464844,18.65625 L22.8457031,18.65625 L22.8457031,19.9453125 C22.8457031,20.6572617 22.2685898,21.234375 21.5566406,21.234375 C20.8446914,21.234375 20.2675781,20.6572617 20.2675781,19.9453125 L20.2675781,18.65625 L18.65625,18.65625 C17.2346719,18.65625 16.078125,19.8127969 16.078125,21.234375 L16.078125,41.34375 C16.078125,42.7653281 17.2346719,43.921875 18.65625,43.921875 L28.5175781,43.921875 C29.2295273,43.921875 29.8066406,44.4989883 29.8066406,45.2109375 C29.8066406,45.9228867 29.2295273,46.5 28.5175781,46.5 L18.65625,46.5 C15.8130938,46.5 13.5,44.1869062 13.5,41.34375 L13.5,21.234375 C13.5,18.3912188 15.8130938,16.078125 18.65625,16.078125 L20.2675781,16.078125 L20.2675781,14.7890625 C20.2675781,14.0771133 20.8446914,13.5 21.5566406,13.5 C22.2685898,13.5 22.8457031,14.0771133 22.8457031,14.7890625 L22.8457031,16.078125 L28.6464844,16.078125 L28.6464844,14.7890625 C28.6464844,14.0771133 29.2235977,13.5 29.9355469,13.5 C30.6474961,13.5 31.2246094,14.0771133 31.2246094,14.7890625 L31.2246094,16.078125 L37.0898438,16.078125 L37.0898438,14.7890625 C37.0898438,14.0771133 37.666957,13.5 38.3789062,13.5 C39.0908555,13.5 39.6679688,14.0771133 39.6679688,14.7890625 L39.6679688,16.078125 L41.34375,16.078125 Z M38.7011719,30.9023438 C43.0014844,30.9023438 46.5,34.4008594 46.5,38.7011719 C46.5,43.0014844 43.0014844,46.5 38.7011719,46.5 C34.4008594,46.5 30.9023438,43.0014844 30.9023438,38.7011719 C30.9023438,34.4008594 34.4008594,30.9023438 38.7011719,30.9023438 Z M38.7011719,43.921875 C41.5798418,43.921875 43.921875,41.5799063 43.921875,38.7011719 C43.921875,35.8224375 41.5798418,33.4804688 38.7011719,33.4804688 C35.822502,33.4804688 33.4804688,35.8224375 33.4804688,38.7011719 C33.4804688,41.5799063 35.822502,43.921875 38.7011719,43.921875 Z M40.5703125,37.4121094 C41.2822617,37.4121094 41.859375,37.9892227 41.859375,38.7011719 C41.859375,39.4131211 41.2822617,39.9902344 40.5703125,39.9902344 L38.7011719,39.9902344 C37.9892227,39.9902344 37.4121094,39.4131211 37.4121094,38.7011719 L37.4121094,36.0585938 C37.4121094,35.3466445 37.9892227,34.7695312 38.7011719,34.7695312 C39.4131211,34.7695312 39.9902344,35.3466445 39.9902344,36.0585938 L39.9902344,37.4121094 L40.5703125,37.4121094 Z M32.7714844,28.3242188 C32.0595548,28.3242188 31.4824219,27.7470858 31.4824219,27.0351562 C31.4824219,26.3232267 32.0595548,25.7460938 32.7714844,25.7460938 C33.4834139,25.7460938 34.0605469,26.3232267 34.0605469,27.0351562 C34.0605469,27.7470858 33.4834139,28.3242188 32.7714844,28.3242188 Z M27.1640625,33.9316406 C26.4521329,33.9316406 25.875,33.3545077 25.875,32.6425781 C25.875,31.9306486 26.4521329,31.3535156 27.1640625,31.3535156 C27.8759921,31.3535156 28.453125,31.9306486 28.453125,32.6425781 C28.453125,33.3545077 27.8759921,33.9316406 27.1640625,33.9316406 Z M21.5566406,28.3242188 C20.8447111,28.3242188 20.2675781,27.7470858 20.2675781,27.0351562 C20.2675781,26.3232267 20.8447111,25.7460938 21.5566406,25.7460938 C22.2685702,25.7460938 22.8457031,26.3232267 22.8457031,27.0351562 C22.8457031,27.7470858 22.2685702,28.3242188 21.5566406,28.3242188 Z M21.5566406,33.9316406 C20.8447111,33.9316406 20.2675781,33.3545077 20.2675781,32.6425781 C20.2675781,31.9306486 20.8447111,31.3535156 21.5566406,31.3535156 C22.2685702,31.3535156 22.8457031,31.9306486 22.8457031,32.6425781 C22.8457031,33.3545077 22.2685702,33.9316406 21.5566406,33.9316406 Z M21.5566406,39.5390625 C20.8447111,39.5390625 20.2675781,38.9619296 20.2675781,38.25 C20.2675781,37.5380704 20.8447111,36.9609375 21.5566406,36.9609375 C22.2685702,36.9609375 22.8457031,37.5380704 22.8457031,38.25 C22.8457031,38.9619296 22.2685702,39.5390625 21.5566406,39.5390625 Z M27.1640625,39.5390625 C26.4521329,39.5390625 25.875,38.9619296 25.875,38.25 C25.875,37.5380704 26.4521329,36.9609375 27.1640625,36.9609375 C27.8759921,36.9609375 28.453125,37.5380704 28.453125,38.25 C28.453125,38.9619296 27.8759921,39.5390625 27.1640625,39.5390625 Z M27.1640625,28.3242188 C26.4521329,28.3242188 25.875,27.7470858 25.875,27.0351562 C25.875,26.3232267 26.4521329,25.7460938 27.1640625,25.7460938 C27.8759921,25.7460938 28.453125,26.3232267 28.453125,27.0351562 C28.453125,27.7470858 27.8759921,28.3242188 27.1640625,28.3242188 Z" id="Combined-Shape"></path>
                    </g>
                </g>
            </g>
        </g>
    </g>
</svg>