<?xml version="1.0" encoding="UTF-8"?>
<svg width="32px" height="32px" viewBox="0 0 32 32" version="1.1" xmlns="http://www.w3.org/2000/svg" xmlns:xlink="http://www.w3.org/1999/xlink">
    <!-- Generator: Sketch 54.1 (76490) - https://sketchapp.com -->
    <title>Combined Shape</title>
    <desc>Created with Sketch.</desc>
    <g id="Page-1" stroke="none" stroke-width="1" fill="none" fill-rule="evenodd">
        <g id="Главная" transform="translate(-1177.000000, -1042.000000)" fill="#34DFBF" fill-rule="nonzero">
            <g id="Group-36" transform="translate(100.000000, 700.000000)">
                <g id="Group-39-Copy-2" transform="translate(1048.000000, 314.000000)">
                    <g id="Group-41-Copy" transform="translate(15.000000, 15.000000)">
                        <path d="M38.9096578,14.9665103 C39.8717686,16.0475373 40.4016152,17.4926645 40.4016152,19.0358397 C40.4016152,21.7506557 38.6506162,23.7766368 36.758333,25.5616111 C35.7836663,26.4809106 34.6605231,27.4286679 33.3600127,28.5261479 C32.6117178,29.1575189 31.8380064,29.8104617 31.015839,30.5228183 C30.8440183,30.6716271 30.6305681,30.7460924 30.4171788,30.7460924 C30.2037286,30.7460924 29.9902783,30.6716271 29.8185185,30.5228183 C28.9962292,29.8102789 28.222396,29.1573361 27.4741011,28.5258433 C25.4490667,26.8170406 23.700262,25.3413229 22.4810601,23.905641 C21.0837595,22.2600912 20.4328643,20.7127113 20.4328643,19.0357788 C20.4328643,17.4926645 20.9627719,16.0474764 21.9248217,14.9664493 C22.9386189,13.8273491 24.3440259,13.2 25.8820623,13.2 C27.5988068,13.2 29.0869243,14.0115625 30.1856261,15.5468768 C30.2680318,15.6619873 30.3450738,15.7770368 30.4172397,15.8910504 C30.4894666,15.7770977 30.5665086,15.6619873 30.6489143,15.5468768 C31.7475552,14.0115625 33.2356727,13.2 34.9524172,13.2 C36.4904536,13.2 37.8957997,13.8273491 38.9096578,14.9665103 Z M35.5037795,24.2321428 C37.7128249,22.1483322 38.5735133,20.6914442 38.5735133,19.0358397 C38.5735133,16.7509361 37.016765,15.0278132 34.9524172,15.0278132 C32.232481,15.0278132 31.3071236,18.2548068 31.2981029,18.2874083 C31.1883912,18.6833176 30.8280492,18.9574134 30.4171788,18.9574134 C30.0063084,18.9574134 29.6459664,18.6833176 29.5362547,18.2874083 C29.5345481,18.2815583 29.2828816,17.4106429 28.6698369,16.5705618 C27.922883,15.5468768 26.9849088,15.0278132 25.8820013,15.0278132 C23.8175926,15.0278132 22.2609052,16.7508752 22.2610271,19.0358397 C22.2610271,21.7351776 24.6671269,23.7654853 28.6532582,27.1291612 C29.2226011,27.6096515 29.8066941,28.1025121 30.4172397,28.6257804 C31.0276635,28.1024512 31.6115736,27.6097125 32.1809165,27.129344 C33.4607036,26.0494139 34.5659882,25.1167691 35.5037795,24.2321428 Z M42.8578167,31.6059172 C44.3698269,31.6059172 45.6,32.835753 45.6,34.3474236 C45.6,34.9452791 45.4107473,35.51358 45.0526605,35.9909625 C45.0525385,35.9910844 45.0524776,35.9912063 45.0524166,35.9913282 L40.664009,41.8411225 C39.4620563,43.4433459 37.5485011,44.3999391 35.5452871,44.3999391 L27.3834671,44.3999391 C25.4601598,44.3999391 23.546178,44.1361417 21.6946099,43.6157984 L21.1533045,43.463699 C20.6503373,44.0369967 19.9130746,44.4 19.0921871,44.4 L15.3140814,44.4 C14.8092247,44.4 14.4,43.9908063 14.4,43.4861239 L14.4,32.5198542 C14.4,32.0151109 14.8092856,31.6059781 15.3140814,31.6059781 L19.0921871,31.6059781 C20.0171788,31.6059781 20.8359939,32.0666638 21.332927,32.7700626 C23.7426229,30.70953 27.3305616,30.727994 29.7175838,32.8281358 C30.1614286,33.2186218 30.7315029,33.4336694 31.3226661,33.4336694 L35.5453481,33.4336694 C36.774485,33.4336694 37.8172339,34.2463897 38.1644715,35.3625166 L40.8510066,32.4790872 C41.3680535,31.9241925 42.0995259,31.6059172 42.8578167,31.6059172 Z M20.0062686,41.6583107 L20.0062686,34.3474846 C20.0062686,33.8435334 19.5961906,33.4336085 19.0921871,33.4336085 L16.2281019,33.4336085 L16.2281019,42.5721868 L19.0921871,42.5721868 C19.5962515,42.5721868 20.0062686,42.1622009 20.0062686,41.6583107 Z M43.5900205,34.8945184 C43.7089967,34.7358987 43.7718981,34.5467494 43.7718981,34.3474846 C43.7718981,33.8435334 43.3618201,33.4336085 42.8578167,33.4336085 C42.6013351,33.4336085 42.3636873,33.537019 42.1886971,33.7248276 L38.1645324,38.043817 C37.6476074,38.5985898 36.9162569,38.9167433 36.1579661,38.9167433 L29.0490128,38.9167433 C28.544156,38.9167433 28.1349313,38.5076105 28.1349313,38.0028672 C28.1349313,37.4981238 28.544217,37.0889911 29.0490128,37.0889911 L35.54547,37.0889911 C36.0495344,37.0889911 36.4595514,36.6790052 36.4595514,36.1751149 C36.4595514,35.6712247 36.0494734,35.2612388 35.54547,35.2612388 L31.322788,35.2612388 C30.2866828,35.2612388 29.2878796,34.8844028 28.5100845,34.2001383 C26.7887077,32.6857254 24.1927457,32.6858473 22.4714908,34.2001383 L21.8344924,34.7605783 L21.8344924,41.6583716 C21.8344924,41.691034 21.8331515,41.7233917 21.8319934,41.7558103 L22.1894707,41.8562959 C23.8800063,42.3313628 25.627592,42.5722478 27.3836499,42.5722478 L35.5452871,42.5722478 C36.9761717,42.5722478 38.3429968,41.8890192 39.2015519,40.7445565 L43.5898986,34.8946403 C43.5899595,34.8945793 43.5900205,34.8945793 43.5900205,34.8945184 Z" id="Combined-Shape"></path>
                    </g>
                </g>
            </g>
        </g>
    </g>
</svg>