<?xml version="1.0" encoding="UTF-8"?>
<svg width="22px" height="22px" viewBox="0 0 22 22" version="1.1" xmlns="http://www.w3.org/2000/svg" xmlns:xlink="http://www.w3.org/1999/xlink">
    <!-- Generator: Sketch 54.1 (76490) - https://sketchapp.com -->
    <title>Combined Shape</title>
    <desc>Created with Sketch.</desc>
    <g id="Page-1" stroke="none" stroke-width="1" fill="none" fill-rule="evenodd">
        <g id="Главная" transform="translate(-1175.000000, -39.000000)" fill="#1C1E25">
            <g id="Group-34">
                <g id="Group-67" transform="translate(1160.000000, 25.000000)">
                    <g id="Group-31-Copy">
                        <g id="Group-30">
                            <g id="vk">
                                <g id="Group-37">
                                    <path d="M35.0776889,15.8447 C35.6874556,16.4566667 36.0601111,17.0688778 36.3395111,17.7914556 C36.6104778,18.4884889 36.7967444,19.2873333 36.8474667,20.4605444 C36.9068667,21.6336333 36.9153,22.0077556 36.9153,25 C36.9153,27.9922444 36.8984333,28.3663667 36.8474667,29.5393333 C36.7967444,30.7039889 36.6104778,31.5115111 36.3395111,32.2085444 C36.0601111,32.9311222 35.6874556,33.5432111 35.0776889,34.1553 C34.4681667,34.7673889 33.8584,35.1413889 33.1386333,35.4218889 C32.4442889,35.6938333 31.6481333,35.8809556 30.4796889,35.9319222 C29.311,35.9914444 28.9384667,36 25.9575889,36 C22.9769556,36 22.6043,35.9830111 21.4357333,35.9319222 C20.2756,35.8809556 19.4711333,35.6938333 18.7767889,35.4218889 C18.0569,35.1413889 17.4472556,34.7673889 16.8374889,34.1553 C16.2278444,33.5432111 15.8553111,32.9311222 15.5759111,32.2085444 C15.3048222,31.5115111 15.1185556,30.7124222 15.0677111,29.5393333 C15.0085556,28.3663667 15,27.9922444 15,25 C15,22.0077556 15.0169889,21.6336333 15.0677111,20.4605444 C15.1185556,19.2958889 15.3048222,18.4884889 15.5759111,17.7914556 C15.8553111,17.0688778 16.2278444,16.4566667 16.8374889,15.8447 C17.4472556,15.2326111 18.0569,14.8586111 18.7767889,14.5779889 C19.4711333,14.3060444 20.2670444,14.1190444 21.4357333,14.0680778 C22.6043,14.0085556 22.9769556,14 25.9575889,14 C28.9216,14 29.3066,14.0167444 30.4598889,14.0671 L30.4796889,14.0680778 C31.6398222,14.1190444 32.4442889,14.3060444 33.1386333,14.5779889 C33.8584,14.8586111 34.4681667,15.2326111 35.0776889,15.8447 Z M20.3180111,24.9978 C20.3180111,28.1176444 22.8415333,30.6508222 25.9492778,30.6508222 C29.0570222,30.6508222 31.5805444,28.1176444 31.5805444,24.9978 C31.5805444,21.8780778 29.0570222,19.3447778 25.9492778,19.3447778 C22.8415333,19.3447778 20.3180111,21.8780778 20.3180111,24.9978 Z M22.2911667,25.0008556 C22.2911667,22.9775889 23.9254,21.3285667 25.9492778,21.3285667 C27.9731556,21.3285667 29.6076333,22.9691556 29.6076333,25.0008556 C29.6076333,27.024 27.9647222,28.6732667 25.9492778,28.6732667 C23.9339556,28.6732667 22.2911667,27.0325556 22.2911667,25.0008556 Z M31.8006667,20.4439222 C32.5255667,20.4439222 33.1132111,19.8540778 33.1132111,19.1263667 C33.1132111,18.3986556 32.5255667,17.8086889 31.8006667,17.8086889 C31.0757667,17.8086889 30.4881222,18.3986556 30.4881222,19.1263667 C30.4881222,19.8540778 31.0757667,20.4439222 31.8006667,20.4439222 Z" id="Combined-Shape"></path>
                                </g>
                            </g>
                        </g>
                    </g>
                </g>
            </g>
        </g>
    </g>
</svg>