<?xml version="1.0" encoding="UTF-8"?>
<svg width="32px" height="36px" viewBox="0 0 32 36" version="1.1" xmlns="http://www.w3.org/2000/svg" xmlns:xlink="http://www.w3.org/1999/xlink">
    <!-- Generator: Sketch 54.1 (76490) - https://sketchapp.com -->
    <title>Combined Shape</title>
    <desc>Created with Sketch.</desc>
    <g id="Page-1" stroke="none" stroke-width="1" fill="none" fill-rule="evenodd">
        <g id="Главная" transform="translate(-768.000000, -1038.000000)" fill="#34DFBF" fill-rule="nonzero">
            <g id="Group-36" transform="translate(100.000000, 700.000000)">
                <g id="Group-39" transform="translate(640.000000, 314.000000)">
                    <g id="Group-41" transform="translate(15.000000, 15.000000)">
                        <path d="M44.1957,31.2890625 C44.6955,31.8494531 45,32.5891406 45,33.3984375 C45,34.2077344 44.6955,34.9474219 44.1957,35.5078125 C44.6955,36.0682031 45,36.8078906 45,37.6171875 C45,39.0740625 44.0144,40.3038281 42.6788,40.6701563 C42.8216,41.0308594 42.9,41.4246094 42.9,41.8359375 C42.9,43.5803906 41.4867,45 39.75,45 L30.9538,45 C29.7099,45 28.4807,44.7996094 27.3012,44.4044531 L23.6934,43.1964844 C23.1859,44.2624219 22.1023,45 20.85,45 L14.55,45 C13.9704,45 13.5,44.5275 13.5,43.9453125 L13.5,24.9609375 C13.5,24.37875 13.9704,23.90625 14.55,23.90625 L20.85,23.90625 C22.18,23.90625 23.3189,24.73875 23.7802,25.9115625 C26.4136,25.2660938 28.9581,21.7146094 29.7596,18.4957031 L30.3315,16.1971875 C30.4484,15.7275 30.8684,15.3984375 31.35,15.3984375 L32.4,15.3984375 C34.7156,15.3984375 36.6,17.29125 36.6,19.6171875 L36.6,20.6711719 C36.6,21.7209375 36.3417,24.1699219 35.7362,26.015625 L41.85,26.015625 C43.5867,26.015625 45,27.4352344 45,29.1796875 C45,29.9889844 44.6955,30.7286719 44.1957,31.2890625 Z M21.9,41.8359375 L21.9,27.0703125 C21.9,26.4888281 21.4289,26.015625 20.85,26.015625 L15.6,26.015625 L15.6,42.890625 L20.85,42.890625 C21.4289,42.890625 21.9,42.4174219 21.9,41.8359375 Z M39.75,32.34375 C39.1704,32.34375 38.7,31.87125 38.7,31.2890625 C38.7,30.706875 39.1704,30.234375 39.75,30.234375 L41.85,30.234375 C42.4289,30.234375 42.9,29.7611719 42.9,29.1796875 C42.9,28.5982031 42.4289,28.125 41.85,28.125 L31.35,28.125 C30.7704,28.125 30.3,27.6525 30.3,27.0703125 C30.3,26.488125 30.7704,26.015625 31.35,26.015625 L33.4948,26.015625 C34.059,24.8034375 34.5,22.0872656 34.5,20.6711719 L34.5,19.6171875 C34.5,18.4542187 33.5578,17.5078125 32.4,17.5078125 L32.1697,17.5078125 L31.7966,19.0075781 C31.2877,21.0529687 30.1355,23.2734375 28.7145,24.9482813 C27.2592,26.6632031 25.6471,27.7108594 24,28.0251562 L24,41.0758594 L27.9648,42.4033594 C28.9301,42.7267969 29.936,42.890625 30.9538,42.890625 L39.75,42.890625 C40.3289,42.890625 40.8,42.4174219 40.8,41.8359375 C40.8,41.2544531 40.3289,40.78125 39.75,40.78125 C39.1704,40.78125 38.7,40.30875 38.7,39.7265625 C38.7,39.144375 39.1704,38.671875 39.75,38.671875 L41.85,38.671875 C42.4289,38.671875 42.9,38.1986719 42.9,37.6171875 C42.9,37.0357031 42.4289,36.5625 41.85,36.5625 L39.75,36.5625 C39.1704,36.5625 38.7,36.09 38.7,35.5078125 C38.7,34.925625 39.1704,34.453125 39.75,34.453125 L41.85,34.453125 C42.4289,34.453125 42.9,33.9799219 42.9,33.3984375 C42.9,32.8169531 42.4289,32.34375 41.85,32.34375 L39.75,32.34375 Z M18.75,40.78125 C18.170101,40.78125 17.7,40.3090503 17.7,39.7265625 C17.7,39.1440747 18.170101,38.671875 18.75,38.671875 C19.329899,38.671875 19.8,39.1440747 19.8,39.7265625 C19.8,40.3090503 19.329899,40.78125 18.75,40.78125 Z M33.45,9 C34.02988,9 34.5,9.47221875 34.5,10.0546875 L34.5,12.234375 C34.5,12.8168438 34.02988,13.2890625 33.45,13.2890625 C32.87012,13.2890625 32.4,12.8168438 32.4,12.234375 L32.4,10.0546875 C32.4,9.47221875 32.87012,9 33.45,9 Z M28.9952,13.6510312 C29.40526,14.0629219 29.40526,14.7306797 28.9952,15.1425703 C28.58521,15.5544609 27.92028,15.5543906 27.51029,15.1425703 L26.02538,13.6510312 C25.61532,13.2391406 25.61532,12.5713828 26.02538,12.1594922 C26.43544,11.7476016 27.1003,11.7476016 27.51029,12.1594922 L28.9952,13.6510312 Z M40.87462,12.1594922 C41.28468,12.5713828 41.28468,13.2391406 40.87462,13.6510313 L39.38971,15.1425703 C38.97965,15.5544609 38.31479,15.5543906 37.9048,15.1425 C37.49474,14.7306094 37.49474,14.0628516 37.9048,13.6509609 L39.38971,12.1594922 C39.79977,11.7476016 40.46463,11.7476016 40.87462,12.1594922 Z" id="Combined-Shape"></path>
                    </g>
                </g>
            </g>
        </g>
    </g>
</svg>