<?xml version="1.0" encoding="UTF-8"?>
<svg width="51px" height="60px" viewBox="0 0 51 60" version="1.1" xmlns="http://www.w3.org/2000/svg" xmlns:xlink="http://www.w3.org/1999/xlink">
    <!-- Generator: Sketch 54.1 (76490) - https://sketchapp.com -->
    <title>Group 2</title>
    <desc>Created with Sketch.</desc>
    <defs>
        <path d="M0.166,0.266666667 L19.2884,0.266666667 L19.2884,2.496 C18.4721959,2.92622437 17.568555,3.28799853 16.57745,3.58133333 C15.586345,3.87466813 14.6244047,4.07999941 13.6916,4.19733333 L13.6916,37.52 L24.9435,37.52 L28.8496,27.0186667 L31.2399,27.0186667 C31.3953674,27.9182267 31.541116,28.9742162 31.67715,30.1866667 C31.813184,31.3991172 31.9200663,32.6702156 31.9978,34 C32.0755337,35.3297844 32.1338331,36.6399935 32.1727,37.9306667 C32.2115669,39.2213398 32.2115669,40.3555507 32.1727,41.3333333 L0.166,41.3333333 L0.166,39.104 C1.0599378,38.6346643 1.90527935,38.2631125 2.70205,37.9893333 C3.49882065,37.7155542 4.2469965,37.5200006 4.9466,37.4026667 L4.9466,4.19733333 C3.04212381,3.88444288 1.44860641,3.31733744 0.166,2.496 L0.166,0.266666667 Z" id="path-1"></path>
        <path d="M-11.7219,19.1306667 C-11.2943645,19.560891 -10.6919372,19.9617759 -9.9146,20.3333333 C-9.13726278,20.7048907 -8.10730641,20.8906667 -6.8247,20.8906667 C-4.68702265,20.8906667 -2.90889043,20.3333389 -1.49025,19.2186667 C-0.0716095735,18.1039944 0.6377,16.5493433 0.6377,14.5546667 C0.6377,13.1075483 0.181021233,11.895116 -0.73235,10.9173333 C-1.64572123,9.93955067 -2.801993,9.04000411 -4.2012,8.21866667 C-5.600407,7.39732923 -7.0967587,6.58578179 -8.6903,5.784 C-10.2838413,4.98221821 -11.780193,4.03378325 -13.1794,2.93866667 C-14.578607,1.84355008 -15.7348788,0.54311864 -16.64825,-0.962666667 C-17.5616212,-2.46845197 -18.0183,-4.33598885 -18.0183,-6.56533333 C-18.0183,-8.48178736 -17.6685035,-10.143993 -16.9689,-11.552 C-16.2692965,-12.960007 -15.3073561,-14.123551 -14.08305,-15.0426667 C-12.8587439,-15.9617824 -11.410975,-16.64622 -9.7397,-17.096 C-8.06842498,-17.54578 -6.26114305,-17.7706667 -4.3178,-17.7706667 C-1.94692148,-17.7706667 0.258739797,-17.6044461 2.29925,-17.272 C4.3397602,-16.9395539 6.17619184,-16.4213369 7.8086,-15.7173333 C7.76973314,-14.9351072 7.70171715,-14.0355606 7.60455,-13.0186667 C7.50738285,-12.0017727 7.38106744,-10.9946717 7.2256,-9.99733333 C7.07013256,-8.99999501 6.90495087,-8.06133773 6.73005,-7.18133333 C6.55514913,-6.30132893 6.38996744,-5.56800293 6.2345,-4.98133333 L3.8442,-4.98133333 L1.1624,-13.0186667 C0.695997668,-13.2533345 0.0061212335,-13.4684435 -0.90725,-13.664 C-1.82062123,-13.8595565 -2.76312848,-13.9573333 -3.7348,-13.9573333 C-5.36720816,-13.9573333 -6.74696103,-13.5271154 -7.8741,-12.6666667 C-9.00123897,-11.8062179 -9.5648,-10.5546749 -9.5648,-8.912 C-9.5648,-7.42577035 -9.09840466,-6.16444963 -8.1656,-5.128 C-7.23279534,-4.09155037 -6.066807,-3.14311541 -4.6676,-2.28266667 C-3.268393,-1.42221792 -1.74289159,-0.57155976 -0.09105,0.269333333 C1.56079159,1.11022643 3.086293,2.07821675 4.4855,3.17333333 C5.884707,4.26844992 7.05069534,5.549326 7.9835,7.016 C8.91630466,8.482674 9.3827,10.2915448 9.3827,12.4426667 C9.3827,16.3537973 8.07096312,19.3751005 5.44745,21.5066667 C2.82393688,23.6382329 -1.03354121,24.704 -6.1251,24.704 C-7.36883955,24.704 -8.62227702,24.6257786 -9.88545,24.4693333 C-11.148623,24.3128881 -12.343761,24.0977791 -13.4709,23.824 C-14.598039,23.5502209 -15.5988456,23.2568905 -16.47335,22.944 C-17.3478544,22.6311095 -17.9988645,22.2986684 -18.4264,21.9466667 C-18.3875331,21.0471066 -18.2903674,20.0791163 -18.1349,19.0426667 C-17.9794326,18.006217 -17.8142509,16.969783 -17.63935,15.9333333 C-17.4644491,14.8968837 -17.2798343,13.909338 -17.0855,12.9706667 C-16.8911657,12.0319953 -16.6968343,11.2106702 -16.5025,10.5066667 L-14.1122,10.5066667 L-11.7219,19.1306667 Z" id="path-3"></path>
        <filter x="-18.0%" y="-9.4%" width="157.5%" height="137.7%" filterUnits="objectBoundingBox" id="filter-4">
            <feOffset dx="3" dy="4" in="SourceAlpha" result="shadowOffsetOuter1"></feOffset>
            <feGaussianBlur stdDeviation="2" in="shadowOffsetOuter1" result="shadowBlurOuter1"></feGaussianBlur>
            <feColorMatrix values="0 0 0 0 0.265555813   0 0 0 0 0.654381793   0 0 0 0 0.498851401  0 0 0 0.537997159 0" type="matrix" in="shadowBlurOuter1"></feColorMatrix>
        </filter>
    </defs>
    <g id="Page-1" stroke="none" stroke-width="1" fill="none" fill-rule="evenodd">
        <g id="Главная" transform="translate(-100.000000, -20.000000)">
            <g id="Group-34">
                <g id="Group-61" transform="translate(100.000000, 20.000000)">
                    <g id="Group-2">
                        <g id="Group" transform="translate(18.426400, 17.770667)">
                            <mask id="mask-2" fill="white">
                                <use xlink:href="#path-1"></use>
                            </mask>
                            <use id="L" fill="#34DFBF" fill-rule="nonzero" xlink:href="#path-1"></use>
                            <g id="S" fill-rule="nonzero" mask="url(#mask-2)">
                                <use fill="black" fill-opacity="1" filter="url(#filter-4)" xlink:href="#path-3"></use>
                                <use fill="#70E3B5" xlink:href="#path-3"></use>
                            </g>
                        </g>
                        <path d="M6.7045,36.9013333 C7.13203547,37.3315577 7.73446278,37.7324426 8.5118,38.104 C9.28913722,38.4755574 10.3190936,38.6613333 11.6017,38.6613333 C13.7393774,38.6613333 15.5175096,38.1040056 16.93615,36.9893333 C18.3547904,35.8746611 19.0641,34.32001 19.0641,32.3253333 C19.0641,30.878215 18.6074212,29.6657827 17.69405,28.688 C16.7806788,27.7102173 15.624407,26.8106708 14.2252,25.9893333 C12.825993,25.1679959 11.3296413,24.3564485 9.7361,23.5546667 C8.1425587,22.7528849 6.646207,21.8044499 5.247,20.7093333 C3.847793,19.6142167 2.69152123,18.3137853 1.77815,16.808 C0.864778766,15.3022147 0.4081,13.4346778 0.4081,11.2053333 C0.4081,9.28887931 0.757896502,7.62667371 1.4575,6.21866667 C2.1571035,4.81065963 3.11904388,3.64711571 4.34335,2.728 C5.56765612,1.80888429 7.01542498,1.12444669 8.6867,0.674666667 C10.357975,0.22488664 12.1652569,0 14.1086,0 C16.4794785,0 18.6851398,0.16622056 20.72565,0.498666667 C22.7661602,0.831112773 24.6025918,1.34932981 26.235,2.05333333 C26.1961331,2.83555947 26.1281172,3.73510603 26.03095,4.752 C25.9337828,5.76889397 25.8074674,6.77599501 25.652,7.77333333 C25.4965326,8.77067165 25.3313509,9.70932893 25.15645,10.5893333 C24.9815491,11.4693377 24.8163674,12.2026637 24.6609,12.7893333 L22.2706,12.7893333 L19.5888,4.752 C19.1223977,4.51733216 18.4325212,4.3022232 17.51915,4.10666667 C16.6057788,3.91111013 15.6632715,3.81333333 14.6916,3.81333333 C13.0591918,3.81333333 11.679439,4.24355125 10.5523,5.104 C9.42516103,5.96444875 8.8616,7.21599179 8.8616,8.85866667 C8.8616,10.3448963 9.32799534,11.606217 10.2608,12.6426667 C11.1936047,13.6791163 12.359593,14.6275513 13.7588,15.488 C15.158007,16.3484487 16.6835084,17.1991069 18.33535,18.04 C19.9871916,18.8808931 21.512693,19.8488834 22.9119,20.944 C24.311107,22.0391166 25.4770953,23.3199927 26.4099,24.7866667 C27.3427047,26.2533407 27.8091,28.0622115 27.8091,30.2133333 C27.8091,34.124464 26.4973631,37.1457671 23.87385,39.2773333 C21.2503369,41.4088995 17.3928588,42.4746667 12.3013,42.4746667 C11.0575604,42.4746667 9.80412298,42.3964452 8.54095,42.24 C7.27777702,42.0835548 6.08263897,41.8684458 4.9555,41.5946667 C3.82836103,41.3208875 2.82755437,41.0275571 1.95305,40.7146667 C1.07854563,40.4017762 0.427535471,40.0693351 0,39.7173333 C0.038866861,38.8177733 0.136032556,37.849783 0.2915,36.8133333 C0.446967444,35.7768837 0.612149125,34.7404496 0.78705,33.704 C0.961950874,32.6675504 1.1465657,31.6800047 1.3409,30.7413333 C1.53523431,29.802662 1.7295657,28.9813369 1.9239,28.2773333 L4.3142,28.2773333 L6.7045,36.9013333 Z" id="S" fill="#34DFBF" fill-rule="nonzero"></path>
                    </g>
                </g>
            </g>
        </g>
    </g>
</svg>