<?xml version="1.0" encoding="UTF-8"?>
<svg width="40px" height="40px" viewBox="0 0 40 40" version="1.1" xmlns="http://www.w3.org/2000/svg" xmlns:xlink="http://www.w3.org/1999/xlink">
    <!-- Generator: Sketch 54.1 (76490) - https://sketchapp.com -->
    <title>Group 4</title>
    <desc>Created with Sketch.</desc>
    <g id="Page-1" stroke="none" stroke-width="1" fill="none" fill-rule="evenodd">
        <g id="Меню-2" transform="translate(-305.000000, -92.000000)">
            <g id="Group-36" transform="translate(0.000000, 20.000000)">
                <g id="Group-4" transform="translate(305.000000, 72.000000)">
                    <rect id="Rectangle-Copy" fill="#01AFF0" x="0" y="0" width="40" height="40" rx="4.8"></rect>
                    <path d="M14.2280369,10.6956738 L17.2690515,13.7827822 C17.7979705,14.2424908 17.7979705,15.0311438 17.2690515,15.55665 L16.078758,16.739214 C16.9379349,18.7753975 17.5331036,19.9580052 18.7895147,21.2063668 C19.9136024,22.323155 21.7644777,23.308348 23.2858657,23.965362 L24.4761591,22.782798 C24.9388724,22.2573136 25.7989079,22.2573136 26.2616212,22.782798 L29.3026358,25.804065 C29.6991214,26.1979759 29.6991214,26.8550555 29.3026358,27.2489665 L27.9798869,28.6280703 C22.7567485,33.7514496 6.22756179,17.1979164 11.3844285,12.074537 L12.7725464,10.6954332 C13.169032,10.3015223 13.8304064,10.3015223 14.226892,10.6954332 L14.2280369,10.6956738 Z" id="Fill-1" fill="#FFFFFF"></path>
                </g>
            </g>
        </g>
    </g>
</svg>