<?xml version="1.0" encoding="UTF-8"?>
<svg width="25px" height="25px" viewBox="0 0 25 25" version="1.1" xmlns="http://www.w3.org/2000/svg" xmlns:xlink="http://www.w3.org/1999/xlink">
    <!-- Generator: Sketch 54.1 (76490) - https://sketchapp.com -->
    <title>Group 4</title>
    <desc>Created with Sketch.</desc>
    <g id="Page-1" stroke="none" stroke-width="1" fill="none" fill-rule="evenodd">
        <g id="Главная" transform="translate(-980.000000, -38.000000)">
            <g id="Group-34">
                <g id="Group-18" transform="translate(965.000000, 25.000000)">
                    <g id="Group-3">
                        <g id="Group-4" transform="translate(15.000000, 13.000000)">
                            <g id="Логоскайп">
                                <path d="M24.115181,14.5870935 C24.2441177,13.8829193 24.3118286,13.1623023 24.3118286,12.4418764 C24.3118286,10.8444354 23.9999771,9.29479338 23.383522,7.8357781 C22.7888107,6.42647374 21.9379425,5.16094862 20.8532333,4.07438284 C19.77005,2.98762578 18.5066223,2.1348925 17.1014786,1.53874392 C15.646553,0.921563829 14.1004562,0.608767475 12.5070572,0.608767475 C11.7559433,0.608767475 11.003685,0.679509902 10.2716446,0.820421255 C10.2701187,0.820803622 10.2680206,0.820803622 10.2661133,0.821186038 C9.26170352,0.285837756 8.13217163,0 6.98871611,0 C5.12199404,0 3.36685181,0.728647264 2.04696655,2.0522959 C0.727272021,3.37537094 0,5.13475481 0,7.00598827 C0,8.19694699 0.305747998,9.36783016 0.879287695,10.4023907 C0.762939453,11.0727232 0.701522852,11.7577778 0.701522852,12.4418764 C0.701522852,14.0396999 1.01356504,15.5891508 1.63002012,17.0483573 C2.22377778,18.458044 3.07502744,19.7228043 4.15878296,20.8095613 C5.24349214,21.8961271 6.50520322,22.7501988 7.91187285,23.3448178 C9.36698916,23.9631451 10.9134674,24.2761326 12.5068665,24.2761326 C13.2005691,24.2761326 13.8957978,24.2126557 14.5744324,24.0920111 C15.6200409,24.6849093 16.8037415,25 18.012619,25 C19.8789597,25 21.6331482,24.2726911 22.9532242,22.9486601 C24.2734909,21.6263499 25,19.8665836 25,17.9953501 C25,16.8003763 24.6927261,15.6256692 24.115181,14.5870935 L24.115181,14.5870935 Z" id="Path" fill="#FFFFFF"></path>
                                <path d="M12.5517561,20 C8.32122715,20 6.42857143,18.0288398 6.42857143,16.5514726 C6.42857143,15.793825 7.01885994,15.2626512 7.83233435,15.2626512 C9.64283453,15.2626512 9.17395156,17.7263279 12.5517561,17.7263279 C14.2810627,17.7263279 15.2359524,16.8364794 15.2359524,15.9258435 C15.2359524,15.3780762 14.9508131,14.7710464 13.8121797,14.5050036 L10.0493793,13.6147904 C7.01885994,12.8945238 6.46897581,11.3418477 6.46897581,9.88235034 C6.46897581,6.8521247 9.47948549,5.71428571 12.3066363,5.71428571 C14.9109859,5.71428571 17.9809477,7.07841606 17.9809477,8.89640561 C17.9809477,9.67538768 17.2692538,10.1283351 16.4559717,10.1283351 C14.9109859,10.1283351 15.1951633,8.10155942 12.0828731,8.10155942 C10.5384645,8.10155942 9.68304648,8.76438706 9.68304648,9.7127686 C9.68304648,10.659509 10.9028734,10.9618386 11.9618524,11.1905005 L14.7470597,11.7763782 C17.7979737,12.4206065 18.5714286,14.1087657 18.5714286,15.6988228 C18.571621,18.161223 16.5771848,20 12.5517561,20 L12.5517561,20 Z" id="Path" fill="#01AFF0"></path>
                            </g>
                        </g>
                    </g>
                </g>
            </g>
        </g>
    </g>
</svg>