<?xml version="1.0" encoding="UTF-8"?>
<svg width="28px" height="16px" viewBox="0 0 28 16" version="1.1" xmlns="http://www.w3.org/2000/svg" xmlns:xlink="http://www.w3.org/1999/xlink">
    <!-- Generator: Sketch 54.1 (76490) - https://sketchapp.com -->
    <title>Path</title>
    <desc>Created with Sketch.</desc>
    <g id="Page-1" stroke="none" stroke-width="1" fill="none" fill-rule="evenodd">
        <g id="Главная" transform="translate(-1301.000000, -43.000000)" fill="#1C1E25">
            <g id="Group-34">
                <g id="Group-67" transform="translate(1160.000000, 25.000000)">
                    <g id="Group-31" transform="translate(130.000000, 0.000000)">
                        <g id="Group-30">
                            <g id="vk">
                                <path d="M26.3075854,33.2705326 C26.3075854,33.2705326 26.7890699,33.2184177 27.0348805,32.957129 C27.261142,32.7172574 27.2539016,32.2667843 27.2539016,32.2667843 C27.2539016,32.2667843 27.222768,30.1579135 28.2154226,29.8473654 C29.1939584,29.5414578 30.4505244,31.8855599 31.7823902,32.786863 C32.7895254,33.4689978 33.5548324,33.319435 33.5548324,33.319435 L37.1160077,33.2705326 C37.1160077,33.2705326 38.9789546,33.1573789 38.0956296,31.7131522 C38.0232259,31.5950012 37.5812014,30.6447956 35.4478268,28.6922696 C33.2148971,26.6487209 33.5139243,26.9792582 36.2037213,23.4443651 C37.8418547,21.2915892 38.496746,19.9772928 38.2922056,19.41438 C38.0970777,18.8782384 36.8922803,19.0199483 36.8922803,19.0199483 L32.8825642,19.044578 C32.8825642,19.044578 32.5853471,19.0045994 32.3648778,19.1345298 C32.1494769,19.2619616 32.0108238,19.5589454 32.0108238,19.5589454 C32.0108238,19.5589454 31.3762055,21.2248392 30.5298064,22.6415806 C28.7443315,25.6310515 28.0304311,25.7888241 27.7386443,25.6032092 C27.0598597,25.1705837 27.2292844,23.8652112 27.2292844,22.9378506 C27.2292844,20.0408303 27.674929,18.8329056 26.3615262,18.5202158 C25.925656,18.4163429 25.6049077,18.3478082 24.4902529,18.3367426 C23.0595561,18.3221076 21.8486044,18.3410261 21.1629415,18.6722773 C20.7067983,18.8925165 20.3549164,19.3833252 20.5692313,19.4115243 C20.8342288,19.4465056 21.4344553,19.5710818 21.7526695,19.998353 C22.1635605,20.5494865 22.1490797,21.7873951 22.1490797,21.7873951 C22.1490797,21.7873951 22.3851157,25.1977121 21.5977256,25.6214138 C21.0572321,25.9119725 20.3158184,25.3187187 18.7240233,22.6065994 C17.9083958,21.2173432 17.2926025,19.6817368 17.2926025,19.6817368 C17.2926025,19.6817368 17.1738604,19.3947476 16.9620796,19.2412584 C16.7050465,19.0552865 16.3459243,18.9960325 16.3459243,18.9960325 L12.5356803,19.0206622 C12.5356803,19.0206622 11.9636911,19.0363681 11.7537205,19.2815939 C11.5669189,19.4996914 11.7388777,19.9508784 11.7388777,19.9508784 C11.7388777,19.9508784 14.7219096,26.8321941 18.0995415,30.2999802 C21.1966092,33.4793494 24.7136183,33.2705326 24.7136183,33.2705326 L26.3075854,33.2705326 Z" id="Path"></path>
                            </g>
                        </g>
                    </g>
                </g>
            </g>
        </g>
    </g>
</svg>