<svg width="100" height="100" viewBox="0 0 100 100" xmlns="http://www.w3.org/2000/svg">
    <title>
        help
    </title>
    <g fill-rule="nonzero" fill="none">
        <path d="M87.396 48.516l-.234-3.191 2.024-2.024c8.951-8.951 8.951-23.584 0-32.458-8.951-8.95-23.507-8.95-32.458 0l-2.024 2.024a21.224 21.224 0 0 0-3.191-.234l3.503-3.502c9.885-9.885 25.997-9.963 35.882 0 9.886 9.885 9.886 25.997 0 35.882l-3.502 3.503zm-41.954-35.57l-2.024-2.025c-8.951-8.95-23.584-8.95-32.458 0-9.029 8.874-9.029 23.507 0 32.458l2.024 2.024a21.224 21.224 0 0 0-.234 3.191l-3.502-3.502c-9.886-9.885-9.963-25.998 0-35.883 9.885-9.885 25.997-9.885 35.882 0l3.503 3.503c-1.09 0-2.18.077-3.191.233zm-32.77 38.528l.234 3.192-2.024 2.023c-8.951 8.951-8.951 23.585-.078 32.458 8.952 8.951 23.507 8.951 32.458 0l2.024-2.024c1.012.156 2.102.234 3.191.234l-3.502 3.502c-9.885 9.885-25.998 9.963-35.883.078-9.885-9.885-9.885-25.997.078-35.883l3.502-3.58zm41.954 35.571l2.024 2.024c8.951 8.951 23.585 8.951 32.458 0 8.951-8.951 8.951-23.507-.078-32.458l-2.023-2.024c.155-1.011.233-2.101.233-3.19l3.503 3.502c9.885 9.885 9.963 25.997.078 35.882-9.886 9.885-25.998 9.885-35.883-.078l-3.503-3.502c1.09.078 2.18 0 3.191-.156z" fill="#E4E7E7"/>
        <path d="M50 0C22.422 0 0 22.422 0 50s22.344 50 50 50c27.578 0 50-22.422 50-50S77.578 0 50 0zm0 75c-13.828 0-25-11.172-25-25s11.172-25 25-25 25 11.172 25 25-11.172 25-25 25z" fill="#E2574C"/>
        <path d="M50 18.987c-17.108 0-31.013 13.905-31.013 31.013 0 17.108 13.905 31.013 31.013 31.013 17.108 0 31.013-13.905 31.013-31.013 0-17.108-13.905-31.013-31.013-31.013zm0 56.01c-13.827 0-24.998-11.17-24.998-24.997S36.173 25.002 50 25.002c13.827 0 24.998 11.171 24.998 24.998 0 13.827-11.171 24.997-24.998 24.997z" fill="#D95449"/>
        <path d="M50 7.173C26.328 7.173 7.173 26.328 7.173 50c0 23.672 19.155 42.827 42.827 42.827 23.672 0 42.827-19.155 42.827-42.827C92.827 26.328 73.672 7.173 50 7.173zm0 82.54c-21.959 0-39.712-17.754-39.712-39.713S28.04 10.288 50 10.288c21.959 0 39.712 17.754 39.712 39.712 0 21.959-17.754 39.712-39.712 39.712z" fill="#E5685E"/>
        <path d="M38.192 71.816c-4.515-2.335-8.173-6.071-10.508-10.508L9.704 79.366c2.958 3.97 6.46 7.55 10.508 10.507l17.98-18.057zm23.116-44.132a24.46 24.46 0 0 1 10.508 10.508l18.057-17.98A51.706 51.706 0 0 0 79.366 9.705l-18.058 17.98zM9.705 20.212l17.98 17.98a24.46 24.46 0 0 1 10.507-10.508l-17.98-17.98A51.706 51.706 0 0 0 9.705 20.213zm80.168 59.154l-17.98-17.98a24.46 24.46 0 0 1-10.507 10.508l17.98 17.98a51.706 51.706 0 0 0 10.507-10.508z" fill="#EFEFEF"/>
        <path d="M65.817 23.207l-4.379 4.378A24.569 24.569 0 0 1 71.993 38.14l4.378-4.379c-2.658-4.3-6.254-7.974-10.554-10.554zM27.585 61.36l-4.378 4.457c2.58 4.3 6.254 7.896 10.554 10.554l4.379-4.378A26.086 26.086 0 0 1 27.585 61.36zm33.853 10.633l4.379 4.378c4.3-2.58 7.896-6.254 10.554-10.554l-4.378-4.379a26.373 26.373 0 0 1-10.555 10.555zm-23.22-44.33l-4.457-4.456A32.422 32.422 0 0 0 23.207 33.76l4.378 4.379c2.424-4.457 6.098-8.131 10.633-10.477z" fill="#E6E6E6"/>
        <path d="M17.033 72.42l-2.265 2.266c2.89 4.062 6.406 7.656 10.546 10.546l2.266-2.266c-4.14-2.89-7.734-6.405-10.547-10.546zm65.934 0A39.828 39.828 0 0 1 72.42 82.966l2.266 2.266a45.052 45.052 0 0 0 10.546-10.546l-2.265-2.266zM17.033 27.58A39.828 39.828 0 0 1 27.58 17.034l-2.188-2.188a45.052 45.052 0 0 0-10.546 10.546l2.187 2.188zm65.934 0l2.265-2.266a45.052 45.052 0 0 0-10.546-10.546l-2.266 2.266c4.14 2.812 7.656 6.405 10.547 10.546z" fill="#F1F1F1"/>
    </g>
</svg>
