<svg width="34" height="34" viewBox="0 0 34 34" xmlns="http://www.w3.org/2000/svg">
    <title>
        Combined Shape
    </title>
    <path d="M25.379 15.324a1.29 1.29 0 1 1 0-2.578 1.29 1.29 0 0 1 0 2.578zm2.965-12.246A5.162 5.162 0 0 1 33.5 8.234v7.348a1.289 1.289 0 1 1-2.578 0V8.234a2.581 2.581 0 0 0-2.578-2.578h-1.676v1.29a1.289 1.289 0 1 1-2.578 0v-1.29h-5.865v1.29a1.289 1.289 0 1 1-2.579 0v-1.29h-5.8v1.29a1.289 1.289 0 1 1-2.578 0v-1.29H5.656a2.581 2.581 0 0 0-2.578 2.578v20.11a2.581 2.581 0 0 0 2.578 2.578h9.862a1.289 1.289 0 1 1 0 2.578H5.656A5.162 5.162 0 0 1 .5 28.344V8.234a5.162 5.162 0 0 1 5.156-5.156h1.612V1.79a1.289 1.289 0 1 1 2.578 0v1.29h5.8v-1.29a1.289 1.289 0 1 1 2.579 0v1.29h5.865v-1.29a1.289 1.289 0 1 1 2.578 0v1.29h1.676zM25.7 17.902c4.3 0 7.799 3.499 7.799 7.8 0 4.3-3.499 7.798-7.799 7.798-4.3 0-7.799-3.499-7.799-7.799 0-4.3 3.499-7.799 7.8-7.799zm0 13.02a5.227 5.227 0 0 0 5.22-5.22 5.227 5.227 0 0 0-5.22-5.222 5.227 5.227 0 0 0-5.22 5.221 5.227 5.227 0 0 0 5.22 5.22zm1.87-6.51a1.289 1.289 0 1 1 0 2.578H25.7c-.712 0-1.289-.577-1.289-1.289V23.06a1.289 1.289 0 1 1 2.578 0v1.353h.58zm-7.8-9.088a1.29 1.29 0 1 1 0-2.578 1.29 1.29 0 0 1 0 2.578zm-5.607 5.608a1.29 1.29 0 1 1 0-2.578 1.29 1.29 0 0 1 0 2.578zm-5.607-5.608a1.29 1.29 0 1 1 0-2.578 1.29 1.29 0 0 1 0 2.578zm0 5.608a1.29 1.29 0 1 1 0-2.578 1.29 1.29 0 0 1 0 2.578zm0 5.607a1.29 1.29 0 1 1 0-2.578 1.29 1.29 0 0 1 0 2.578zm5.607 0a1.29 1.29 0 1 1 0-2.578 1.29 1.29 0 0 1 0 2.578zm0-11.215a1.29 1.29 0 1 1 0-2.578 1.29 1.29 0 0 1 0 2.578z" fill="#34DFBF" fill-rule="nonzero"/>
</svg>
