<svg width="32" height="32" viewBox="0 0 32 32" xmlns="http://www.w3.org/2000/svg">
    <title>
        Combined Shape
    </title>
    <path d="M24.91 1.967c.962 1.08 1.492 2.526 1.492 4.069 0 2.715-1.751 4.74-3.644 6.526-.974.919-2.097 1.867-3.398 2.964-.748.632-1.522 1.284-2.344 1.997a.913.913 0 0 1-1.197 0c-.823-.713-1.597-1.366-2.345-1.997-2.025-1.709-3.774-3.185-4.993-4.62-1.397-1.646-2.048-3.193-2.048-4.87 0-1.543.53-2.989 1.492-4.07A5.228 5.228 0 0 1 11.882.2c1.717 0 3.205.812 4.304 2.347.082.115.16.23.231.344.072-.114.15-.229.232-.344C17.748 1.012 19.236.2 20.952.2c1.538 0 2.944.627 3.958 1.767zm-3.406 9.265c2.209-2.084 3.07-3.54 3.07-5.196 0-2.285-1.557-4.008-3.622-4.008-2.72 0-3.645 3.227-3.654 3.26a.914.914 0 0 1-1.762 0c-.001-.006-.253-.877-.866-1.717-.747-1.024-1.685-1.543-2.788-1.543-2.064 0-3.621 1.723-3.621 4.008 0 2.7 2.406 4.73 6.392 8.093.57.48 1.154.974 1.764 1.497.61-.524 1.195-1.016 1.764-1.497 1.28-1.08 2.385-2.012 3.323-2.897zm7.354 7.374a2.745 2.745 0 0 1 2.742 2.741c0 .598-.19 1.167-.547 1.644l-4.389 5.85a6.43 6.43 0 0 1-5.119 2.559h-8.162c-1.923 0-3.837-.264-5.688-.784l-.542-.152a2.736 2.736 0 0 1-2.06.936H1.313a.914.914 0 0 1-.914-.914V19.52c0-.505.41-.914.914-.914h3.778c.925 0 1.744.46 2.24 1.164a6.413 6.413 0 0 1 8.386.058c.443.39 1.014.606 1.605.606h4.222c1.23 0 2.272.812 2.62 1.929l2.686-2.884a2.752 2.752 0 0 1 2.007-.873zM6.006 28.658v-7.31a.915.915 0 0 0-.914-.914H2.228v9.138h2.864c.504 0 .914-.41.914-.914zm23.584-6.763a.915.915 0 0 0-1.401-1.17l-4.024 4.319a2.752 2.752 0 0 1-2.007.873h-7.109a.914.914 0 1 1 0-1.828h6.496a.915.915 0 0 0 0-1.828h-4.222a4.256 4.256 0 0 1-2.813-1.06 4.581 4.581 0 0 0-6.039 0l-.637.56v6.897c0 .033 0 .065-.002.098l.357.1c1.691.475 3.439.716 5.195.716h8.161c1.431 0 2.798-.683 3.657-1.827l4.388-5.85z" fill="#34DFBF" fill-rule="nonzero"/>
</svg>
