<svg width="22" height="22" viewBox="0 0 22 22" xmlns="http://www.w3.org/2000/svg">
    <title>
        Combined Shape
    </title>
    <path d="M20.078 1.845c.61.612.982 1.224 1.262 1.946.27.697.457 1.496.507 2.67.06 1.173.068 1.547.068 4.539s-.017 3.366-.068 4.54c-.05 1.164-.237 1.972-.507 2.669a5.378 5.378 0 0 1-1.262 1.946 5.35 5.35 0 0 1-1.94 1.267c-.694.272-1.49.459-2.658.51-1.169.06-1.542.068-4.522.068-2.981 0-3.354-.017-4.522-.068-1.16-.051-1.965-.238-2.66-.51a5.353 5.353 0 0 1-1.939-1.267A5.378 5.378 0 0 1 .576 18.21c-.271-.697-.457-1.497-.508-2.67C.008 14.366 0 13.992 0 11s.017-3.366.068-4.54c.05-1.164.237-1.972.508-2.669a5.377 5.377 0 0 1 1.261-1.946A5.355 5.355 0 0 1 3.777.578C4.47.306 5.267.119 6.436.068 7.604.008 7.977 0 10.958 0c2.964 0 3.349.017 4.502.067l.02.001c1.16.051 1.964.238 2.659.51.72.28 1.33.655 1.939 1.267zm-14.76 9.153c0 3.12 2.524 5.653 5.631 5.653 3.108 0 5.632-2.533 5.632-5.653 0-3.12-2.524-5.653-5.632-5.653-3.107 0-5.631 2.533-5.631 5.653zM7.291 11a3.666 3.666 0 0 1 3.658-3.672A3.66 3.66 0 0 1 14.608 11c0 2.023-1.643 3.672-3.659 3.672a3.666 3.666 0 0 1-3.658-3.672zm9.51-4.557c.725 0 1.312-.59 1.312-1.318 0-.727-.587-1.317-1.312-1.317-.725 0-1.313.59-1.313 1.317 0 .728.588 1.318 1.313 1.318z" fill="#1C1E25" fill-rule="evenodd"/>
</svg>
