<svg width="32" height="36" viewBox="0 0 32 36" xmlns="http://www.w3.org/2000/svg">
    <title>
        Combined Shape
    </title>
    <path d="M31.196 22.29c.5.56.804 1.3.804 2.108a3.16 3.16 0 0 1-.804 2.11 3.168 3.168 0 0 1-1.517 5.162c.143.36.221.755.221 1.166A3.16 3.16 0 0 1 26.75 36h-8.796c-1.244 0-2.473-.2-3.653-.596l-3.608-1.208A3.152 3.152 0 0 1 7.85 36h-6.3C.97 36 .5 35.528.5 34.945V15.961c0-.582.47-1.055 1.05-1.055h6.3c1.33 0 2.469.833 2.93 2.006 2.634-.646 5.178-4.197 5.98-7.416l.571-2.299a1.05 1.05 0 0 1 1.019-.799h1.05c2.316 0 4.2 1.893 4.2 4.22v1.053c0 1.05-.258 3.499-.864 5.345h6.114A3.16 3.16 0 0 1 32 20.18a3.16 3.16 0 0 1-.804 2.11zM8.9 32.835V18.07c0-.581-.471-1.054-1.05-1.054H2.6V33.89h5.25c.579 0 1.05-.474 1.05-1.055zm17.85-9.492c-.58 0-1.05-.473-1.05-1.055s.47-1.055 1.05-1.055h2.1a1.054 1.054 0 1 0 0-2.11l-10.5.001c-.58 0-1.05-.473-1.05-1.055s.47-1.054 1.05-1.054h2.145c.564-1.213 1.005-3.929 1.005-5.345v-1.054c0-1.163-.942-2.11-2.1-2.11h-.23l-.373 1.5c-.51 2.046-1.662 4.266-3.082 5.941-1.456 1.715-3.068 2.763-4.715 3.077v13.05l3.965 1.328a9.391 9.391 0 0 0 2.989.488h8.796c.579 0 1.05-.474 1.05-1.055 0-.582-.471-1.055-1.05-1.055-.58 0-1.05-.472-1.05-1.054 0-.583.47-1.055 1.05-1.055h2.1c.579 0 1.05-.473 1.05-1.055 0-.581-.471-1.055-1.05-1.055h-2.1c-.58 0-1.05-.472-1.05-1.054 0-.582.47-1.055 1.05-1.055h2.1c.579 0 1.05-.473 1.05-1.055 0-.581-.471-1.054-1.05-1.054h-2.1zm-21 8.437c-.58 0-1.05-.472-1.05-1.054 0-.583.47-1.055 1.05-1.055.58 0 1.05.472 1.05 1.055 0 .582-.47 1.054-1.05 1.054zM20.45 0c.58 0 1.05.472 1.05 1.055v2.18c0 .582-.47 1.054-1.05 1.054-.58 0-1.05-.472-1.05-1.055v-2.18C19.4.473 19.87 0 20.45 0zm-4.455 4.651c.41.412.41 1.08 0 1.492a1.047 1.047 0 0 1-1.485 0L13.025 4.65a1.058 1.058 0 0 1 0-1.492 1.047 1.047 0 0 1 1.485 0l1.485 1.492zm11.88-1.492c.41.412.41 1.08 0 1.492L26.39 6.143a1.047 1.047 0 0 1-1.485 0 1.058 1.058 0 0 1 0-1.492l1.485-1.492a1.047 1.047 0 0 1 1.485 0z" fill="#34DFBF" fill-rule="nonzero"/>
</svg>
