<svg width="51" height="60" viewBox="0 0 51 60" xmlns="http://www.w3.org/2000/svg" xmlns:xlink="http://www.w3.org/1999/xlink">
    <title>
        Group 2
    </title>
    <defs>
        <path d="M.166.267h19.122v2.229c-.816.43-1.72.792-2.71 1.085-.992.294-1.954.499-2.886.616V37.52h11.252l3.906-10.501h2.39c.155.9.301 1.955.437 3.168.136 1.212.243 2.483.32 3.813.079 1.33.137 2.64.176 3.93.039 1.291.039 2.426 0 3.403H.166v-2.229c.894-.47 1.74-.84 2.536-1.115.797-.273 1.545-.469 2.245-.586V4.197c-1.905-.313-3.498-.88-4.781-1.701V.266z" id="a"/>
        <path d="M-11.722 19.13c.428.43 1.03.832 1.807 1.203.778.372 1.808.558 3.09.558 2.138 0 3.916-.558 5.335-1.672 1.418-1.115 2.128-2.67 2.128-4.664 0-1.447-.457-2.66-1.37-3.638-.914-.977-2.07-1.877-3.47-2.698A79.121 79.121 0 0 0-8.69 5.784a26.831 26.831 0 0 1-4.49-2.845 14.404 14.404 0 0 1-3.468-3.902c-.914-1.505-1.37-3.373-1.37-5.602 0-1.917.35-3.579 1.05-4.987a9.685 9.685 0 0 1 2.885-3.49c1.224-.92 2.672-1.604 4.343-2.054 1.672-.45 3.479-.675 5.422-.675 2.371 0 4.577.167 6.617.499 2.04.332 3.877.85 5.51 1.555a60.115 60.115 0 0 1-.204 2.698 51.282 51.282 0 0 1-.38 3.022C7.07-9 6.906-8.061 6.73-7.181c-.175.88-.34 1.613-.496 2.2h-2.39L1.162-13.02c-.466-.234-1.156-.45-2.07-.645a13.47 13.47 0 0 0-2.827-.293c-1.632 0-3.012.43-4.14 1.29-1.126.86-1.69 2.112-1.69 3.755 0 1.486.467 2.748 1.4 3.784.932 1.036 2.098 1.985 3.497 2.845 1.4.86 2.925 1.711 4.577 2.552a28.04 28.04 0 0 1 4.577 2.904 15.238 15.238 0 0 1 3.498 3.843c.932 1.467 1.399 3.276 1.399 5.427 0 3.91-1.312 6.932-3.936 9.064-2.623 2.131-6.48 3.197-11.572 3.197a30.57 30.57 0 0 1-3.76-.235 31.705 31.705 0 0 1-3.586-.645 29.977 29.977 0 0 1-3.002-.88c-.875-.313-1.526-.645-1.953-.997.038-.9.136-1.868.291-2.904.156-1.037.32-2.073.496-3.11.175-1.036.36-2.024.553-2.962.195-.939.39-1.76.583-2.464h2.39l2.391 8.624z" id="d"/>
        <filter x="-18%" y="-9.4%" width="157.5%" height="137.7%" filterUnits="objectBoundingBox" id="c">
            <feOffset dx="3" dy="4" in="SourceAlpha" result="shadowOffsetOuter1"/>
            <feGaussianBlur stdDeviation="2" in="shadowOffsetOuter1" result="shadowBlurOuter1"/>
            <feColorMatrix values="0 0 0 0 0.265555813 0 0 0 0 0.654381793 0 0 0 0 0.498851401 0 0 0 0.537997159 0" in="shadowBlurOuter1"/>
        </filter>
    </defs>
    <g fill="none" fill-rule="evenodd">
        <g transform="translate(18.426 17.77)">
            <mask id="b" fill="#fff">
                <use xlink:href="#a"/>
            </mask>
            <use fill="#34DFBF" fill-rule="nonzero" xlink:href="#a"/>
            <g fill-rule="nonzero" mask="url(#b)">
                <use fill="#000" filter="url(#c)" xlink:href="#d"/>
                <use fill="#70E3B5" xlink:href="#d"/>
            </g>
        </g>
        <path d="M6.705 36.901c.427.43 1.03.831 1.807 1.203.777.372 1.807.557 3.09.557 2.137 0 3.916-.557 5.334-1.672 1.419-1.114 2.128-2.669 2.128-4.664 0-1.447-.457-2.66-1.37-3.637-.913-.978-2.07-1.877-3.469-2.699a79.121 79.121 0 0 0-4.489-2.434 26.831 26.831 0 0 1-4.489-2.846 14.404 14.404 0 0 1-3.469-3.901c-.913-1.506-1.37-3.373-1.37-5.603 0-1.916.35-3.578 1.05-4.986a9.685 9.685 0 0 1 2.885-3.491c1.225-.92 2.672-1.604 4.344-2.053C10.358.225 12.165 0 14.109 0c2.37 0 4.576.166 6.617.499 2.04.332 3.877.85 5.509 1.554a60.115 60.115 0 0 1-.204 2.699 51.282 51.282 0 0 1-.379 3.021c-.155.998-.32 1.936-.496 2.816-.174.88-.34 1.614-.495 2.2h-2.39l-2.682-8.037c-.467-.235-1.156-.45-2.07-.645a13.47 13.47 0 0 0-2.827-.294c-1.633 0-3.013.43-4.14 1.291-1.127.86-1.69 2.112-1.69 3.755 0 1.486.466 2.747 1.399 3.784.933 1.036 2.099 1.985 3.498 2.845 1.399.86 2.925 1.711 4.576 2.552a28.04 28.04 0 0 1 4.577 2.904 15.238 15.238 0 0 1 3.498 3.843c.933 1.466 1.4 3.275 1.4 5.426 0 3.911-1.313 6.933-3.936 9.064-2.624 2.132-6.481 3.198-11.573 3.198a30.57 30.57 0 0 1-3.76-.235 31.705 31.705 0 0 1-3.586-.645 29.977 29.977 0 0 1-3.002-.88c-.874-.313-1.525-.646-1.953-.998.039-.9.136-1.867.291-2.904.156-1.036.321-2.073.496-3.109s.36-2.024.554-2.963c.194-.938.389-1.76.583-2.464h2.39l2.39 8.624z" fill="#34DFBF" fill-rule="nonzero"/>
    </g>
</svg>
