<svg width="40" height="40" viewBox="0 0 40 40" xmlns="http://www.w3.org/2000/svg">
    <title>
        Group 4
    </title>
    <g fill="none" fill-rule="evenodd">
        <rect fill="#01AFF0" width="40" height="40" rx="4.8"/>
        <path d="M14.228 10.696l3.041 3.087c.529.46.529 1.248 0 1.774l-1.19 1.182c.859 2.036 1.454 3.219 2.71 4.467 1.125 1.117 2.975 2.102 4.497 2.76l1.19-1.183a1.208 1.208 0 0 1 1.786 0l3.04 3.021a1.026 1.026 0 0 1 0 1.445l-1.322 1.38C22.757 33.75 6.228 17.197 11.384 12.074l1.389-1.38a1.043 1.043 0 0 1 1.454 0h.001z" fill="#FFF"/>
    </g>
</svg>
