<svg width="25" height="25" viewBox="0 0 25 25" xmlns="http://www.w3.org/2000/svg">
    <title>
        Group 4
    </title>
    <g fill="none" fill-rule="evenodd">
        <path d="M24.115 14.587c.13-.704.197-1.425.197-2.145a11.77 11.77 0 0 0-.928-4.606 11.786 11.786 0 0 0-2.53-3.762A11.759 11.759 0 0 0 12.506.61c-.751 0-1.503.07-2.235.211l-.006.001A6.984 6.984 0 0 0 6.99 0a6.933 6.933 0 0 0-4.942 2.052A6.97 6.97 0 0 0 0 7.006c0 1.19.306 2.362.88 3.396-.117.67-.178 1.356-.178 2.04 0 1.598.312 3.147.928 4.606a11.778 11.778 0 0 0 2.529 3.762 11.741 11.741 0 0 0 3.753 2.535c1.455.618 3.001.931 4.595.931.694 0 1.389-.063 2.067-.184a6.97 6.97 0 0 0 3.439.908c1.866 0 3.62-.727 4.94-2.051A6.965 6.965 0 0 0 25 17.995a7.02 7.02 0 0 0-.885-3.408z" fill="#FFF"/>
        <path d="M12.552 20c-4.23 0-6.123-1.971-6.123-3.449 0-.757.59-1.288 1.403-1.288 1.81 0 1.342 2.463 4.72 2.463 1.73 0 2.684-.89 2.684-1.8 0-.548-.285-1.155-1.424-1.421l-3.763-.89c-3.03-.72-3.58-2.273-3.58-3.733 0-3.03 3.01-4.168 5.838-4.168 2.604 0 5.674 1.364 5.674 3.182 0 .78-.712 1.232-1.525 1.232-1.545 0-1.26-2.026-4.373-2.026-1.545 0-2.4.662-2.4 1.61 0 .948 1.22 1.25 2.279 1.479l2.785.585c3.051.645 3.824 2.333 3.824 3.923 0 2.462-1.994 4.301-6.02 4.301z" fill="#01AFF0"/>
    </g>
</svg>
