<?xml version="1.0" encoding="UTF-8"?><!DOCTYPE svg PUBLIC "-//W3C//DTD SVG 1.1//EN" "http://www.w3.org/Graphics/SVG/1.1/DTD/svg11.dtd"><svg xmlns="http://www.w3.org/2000/svg"><symbol id="icon-calendar" viewBox="0 0 34 34">
    <title>
        Combined Shape
    </title>
    <path d="M25.379 15.324a1.29 1.29 0 1 1 0-2.578 1.29 1.29 0 0 1 0 2.578zm2.965-12.246A5.162 5.162 0 0 1 33.5 8.234v7.348a1.289 1.289 0 1 1-2.578 0V8.234a2.581 2.581 0 0 0-2.578-2.578h-1.676v1.29a1.289 1.289 0 1 1-2.578 0v-1.29h-5.865v1.29a1.289 1.289 0 1 1-2.579 0v-1.29h-5.8v1.29a1.289 1.289 0 1 1-2.578 0v-1.29H5.656a2.581 2.581 0 0 0-2.578 2.578v20.11a2.581 2.581 0 0 0 2.578 2.578h9.862a1.289 1.289 0 1 1 0 2.578H5.656A5.162 5.162 0 0 1 .5 28.344V8.234a5.162 5.162 0 0 1 5.156-5.156h1.612V1.79a1.289 1.289 0 1 1 2.578 0v1.29h5.8v-1.29a1.289 1.289 0 1 1 2.579 0v1.29h5.865v-1.29a1.289 1.289 0 1 1 2.578 0v1.29h1.676zM25.7 17.902c4.3 0 7.799 3.499 7.799 7.8 0 4.3-3.499 7.798-7.799 7.798-4.3 0-7.799-3.499-7.799-7.799 0-4.3 3.499-7.799 7.8-7.799zm0 13.02a5.227 5.227 0 0 0 5.22-5.22 5.227 5.227 0 0 0-5.22-5.222 5.227 5.227 0 0 0-5.22 5.221 5.227 5.227 0 0 0 5.22 5.22zm1.87-6.51a1.289 1.289 0 1 1 0 2.578H25.7c-.712 0-1.289-.577-1.289-1.289V23.06a1.289 1.289 0 1 1 2.578 0v1.353h.58zm-7.8-9.088a1.29 1.29 0 1 1 0-2.578 1.29 1.29 0 0 1 0 2.578zm-5.607 5.608a1.29 1.29 0 1 1 0-2.578 1.29 1.29 0 0 1 0 2.578zm-5.607-5.608a1.29 1.29 0 1 1 0-2.578 1.29 1.29 0 0 1 0 2.578zm0 5.608a1.29 1.29 0 1 1 0-2.578 1.29 1.29 0 0 1 0 2.578zm0 5.607a1.29 1.29 0 1 1 0-2.578 1.29 1.29 0 0 1 0 2.578zm5.607 0a1.29 1.29 0 1 1 0-2.578 1.29 1.29 0 0 1 0 2.578zm0-11.215a1.29 1.29 0 1 1 0-2.578 1.29 1.29 0 0 1 0 2.578z" fill-rule="nonzero"/>
</symbol><symbol id="icon-facebook" viewBox="0 0 10 19">
    <title>
        facebook
    </title>
    <path d="M9.766.157v2.946H8.014c-.64 0-1.071.134-1.295.402-.223.268-.335.67-.335 1.205v2.11h3.27l-.435 3.303H6.384v8.471H2.97v-8.47H.123V6.82H2.97V4.387c0-1.384.387-2.457 1.161-3.22C4.904.404 5.934.023 7.222.023c1.093 0 1.941.045 2.544.134z" fill-rule="evenodd"/>
</symbol><symbol id="icon-handheard" viewBox="0 0 32 32">
    <title>
        Combined Shape
    </title>
    <path d="M24.91 1.967c.962 1.08 1.492 2.526 1.492 4.069 0 2.715-1.751 4.74-3.644 6.526-.974.919-2.097 1.867-3.398 2.964-.748.632-1.522 1.284-2.344 1.997a.913.913 0 0 1-1.197 0c-.823-.713-1.597-1.366-2.345-1.997-2.025-1.709-3.774-3.185-4.993-4.62-1.397-1.646-2.048-3.193-2.048-4.87 0-1.543.53-2.989 1.492-4.07A5.228 5.228 0 0 1 11.882.2c1.717 0 3.205.812 4.304 2.347.082.115.16.23.231.344.072-.114.15-.229.232-.344C17.748 1.012 19.236.2 20.952.2c1.538 0 2.944.627 3.958 1.767zm-3.406 9.265c2.209-2.084 3.07-3.54 3.07-5.196 0-2.285-1.557-4.008-3.622-4.008-2.72 0-3.645 3.227-3.654 3.26a.914.914 0 0 1-1.762 0c-.001-.006-.253-.877-.866-1.717-.747-1.024-1.685-1.543-2.788-1.543-2.064 0-3.621 1.723-3.621 4.008 0 2.7 2.406 4.73 6.392 8.093.57.48 1.154.974 1.764 1.497.61-.524 1.195-1.016 1.764-1.497 1.28-1.08 2.385-2.012 3.323-2.897zm7.354 7.374a2.745 2.745 0 0 1 2.742 2.741c0 .598-.19 1.167-.547 1.644l-4.389 5.85a6.43 6.43 0 0 1-5.119 2.559h-8.162c-1.923 0-3.837-.264-5.688-.784l-.542-.152a2.736 2.736 0 0 1-2.06.936H1.313a.914.914 0 0 1-.914-.914V19.52c0-.505.41-.914.914-.914h3.778c.925 0 1.744.46 2.24 1.164a6.413 6.413 0 0 1 8.386.058c.443.39 1.014.606 1.605.606h4.222c1.23 0 2.272.812 2.62 1.929l2.686-2.884a2.752 2.752 0 0 1 2.007-.873zM6.006 28.658v-7.31a.915.915 0 0 0-.914-.914H2.228v9.138h2.864c.504 0 .914-.41.914-.914zm23.584-6.763a.915.915 0 0 0-1.401-1.17l-4.024 4.319a2.752 2.752 0 0 1-2.007.873h-7.109a.914.914 0 1 1 0-1.828h6.496a.915.915 0 0 0 0-1.828h-4.222a4.256 4.256 0 0 1-2.813-1.06 4.581 4.581 0 0 0-6.039 0l-.637.56v6.897c0 .033 0 .065-.002.098l.357.1c1.691.475 3.439.716 5.195.716h8.161c1.431 0 2.798-.683 3.657-1.827l4.388-5.85z" fill-rule="nonzero"/>
</symbol><symbol id="icon-like" viewBox="0 0 32 36">
    <title>
        Combined Shape
    </title>
    <path d="M31.196 22.29c.5.56.804 1.3.804 2.108a3.16 3.16 0 0 1-.804 2.11 3.168 3.168 0 0 1-1.517 5.162c.143.36.221.755.221 1.166A3.16 3.16 0 0 1 26.75 36h-8.796c-1.244 0-2.473-.2-3.653-.596l-3.608-1.208A3.152 3.152 0 0 1 7.85 36h-6.3C.97 36 .5 35.528.5 34.945V15.961c0-.582.47-1.055 1.05-1.055h6.3c1.33 0 2.469.833 2.93 2.006 2.634-.646 5.178-4.197 5.98-7.416l.571-2.299a1.05 1.05 0 0 1 1.019-.799h1.05c2.316 0 4.2 1.893 4.2 4.22v1.053c0 1.05-.258 3.499-.864 5.345h6.114A3.16 3.16 0 0 1 32 20.18a3.16 3.16 0 0 1-.804 2.11zM8.9 32.835V18.07c0-.581-.471-1.054-1.05-1.054H2.6V33.89h5.25c.579 0 1.05-.474 1.05-1.055zm17.85-9.492c-.58 0-1.05-.473-1.05-1.055s.47-1.055 1.05-1.055h2.1a1.054 1.054 0 1 0 0-2.11l-10.5.001c-.58 0-1.05-.473-1.05-1.055s.47-1.054 1.05-1.054h2.145c.564-1.213 1.005-3.929 1.005-5.345v-1.054c0-1.163-.942-2.11-2.1-2.11h-.23l-.373 1.5c-.51 2.046-1.662 4.266-3.082 5.941-1.456 1.715-3.068 2.763-4.715 3.077v13.05l3.965 1.328a9.391 9.391 0 0 0 2.989.488h8.796c.579 0 1.05-.474 1.05-1.055 0-.582-.471-1.055-1.05-1.055-.58 0-1.05-.472-1.05-1.054 0-.583.47-1.055 1.05-1.055h2.1c.579 0 1.05-.473 1.05-1.055 0-.581-.471-1.055-1.05-1.055h-2.1c-.58 0-1.05-.472-1.05-1.054 0-.582.47-1.055 1.05-1.055h2.1c.579 0 1.05-.473 1.05-1.055 0-.581-.471-1.054-1.05-1.054h-2.1zm-21 8.437c-.58 0-1.05-.472-1.05-1.054 0-.583.47-1.055 1.05-1.055.58 0 1.05.472 1.05 1.055 0 .582-.47 1.054-1.05 1.054zM20.45 0c.58 0 1.05.472 1.05 1.055v2.18c0 .582-.47 1.054-1.05 1.054-.58 0-1.05-.472-1.05-1.055v-2.18C19.4.473 19.87 0 20.45 0zm-4.455 4.651c.41.412.41 1.08 0 1.492a1.047 1.047 0 0 1-1.485 0L13.025 4.65a1.058 1.058 0 0 1 0-1.492 1.047 1.047 0 0 1 1.485 0l1.485 1.492zm11.88-1.492c.41.412.41 1.08 0 1.492L26.39 6.143a1.047 1.047 0 0 1-1.485 0 1.058 1.058 0 0 1 0-1.492l1.485-1.492a1.047 1.047 0 0 1 1.485 0z" fill-rule="nonzero"/>
</symbol><symbol id="icon-list" viewBox="0 0 22 18">
    <g fill-rule="evenodd">
        <circle cx="2" cy="2" r="2"/>
        <rect height="2" rx="1" width="15" x="7" y="1"/>
        <circle cx="2" cy="9" r="2"/>
        <rect height="2" rx="1" width="15" x="7" y="8"/>
        <circle cx="2" cy="16" r="2"/>
        <rect height="2" rx="1" width="15" x="7" y="15"/>
    </g>
</symbol><symbol id="icon-star" viewBox="0 0 20 19">
    <title>
        Star Copy 4
    </title>
    <path d="M10 15l-5.878 3.09 1.123-6.545L.489 6.91l6.572-.955L10 0l2.939 5.955 6.572.955-4.756 4.635 1.123 6.545z" fill-rule="evenodd"/>
</symbol></svg>