<svg width="28" height="16" viewBox="0 0 28 16" xmlns="http://www.w3.org/2000/svg">
    <title>
        Path
    </title>
    <path d="M15.308 15.27s.481-.052.727-.313c.226-.24.219-.69.219-.69s-.031-2.11.961-2.42c.979-.306 2.236 2.039 3.567 2.94 1.008.682 1.773.532 1.773.532l3.561-.048s1.863-.114.98-1.558c-.073-.118-.515-1.068-2.648-3.02-2.233-2.044-1.934-1.714.756-5.249 1.638-2.152 2.293-3.467 2.088-4.03-.195-.536-1.4-.394-1.4-.394l-4.01.025s-.297-.04-.517.09c-.216.127-.354.424-.354.424s-.635 1.666-1.481 3.083c-1.786 2.99-2.5 3.147-2.791 2.961-.68-.432-.51-1.738-.51-2.665 0-2.897.446-4.105-.867-4.418-.436-.104-.757-.172-1.872-.183-1.43-.015-2.641.004-3.327.335-.456.22-.808.711-.594.74.265.035.865.16 1.184.586.41.551.396 1.79.396 1.79s.236 3.41-.551 3.833c-.54.291-1.282-.302-2.874-3.014-.816-1.39-1.431-2.925-1.431-2.925s-.12-.287-.33-.44c-.258-.187-.617-.246-.617-.246l-3.81.025s-.572.015-.782.26c-.187.219-.015.67-.015.67S3.722 8.832 7.099 12.3c3.098 3.18 6.615 2.97 6.615 2.97h1.594z" fill="#1C1E25" fill-rule="evenodd"/>
</svg>
